# xmcd
#
# Track frame offsets:
#	150
#	19060
#	36525
#	48800
#	68790
#	84710
#	102610
#	120105
#	140510
#	156595
#	167090
#	183430
#	199540
#	209910
#	223185
#	254785
#	268555
#	287345
#
# Disc length: 4040 seconds
#
# Revision: 0
# Processed by: cddbd v1.5.1PL2 Copyright (c) Steve Scherf et al.
# Submitted via: dBpowerAMP V4.0
#
DISCID=180fc612
DTITLE=Vários - Momentos Inesquecíveis
DYEAR=1999
DGENRE=Ballad
TTITLE0=Rock And Roll Lullaby
TTITLE1=Skyline Pigeon
TTITLE2=To Lir, With Love
TTITLE3=Endliee Love
TTITLE4=On My Own
TTITLE5=Shine On
TTITLE6=She's Like The Wind
TTITLE7=I Will Always Love You
TTITLE8=Without You
TTITLE9=Donna
TTITLE10=Unchained Melody
TTITLE11=Sweet Memory
TTITLE12=What Wonderful World
TTITLE13=My Girl
TTITLE14=Just Dont Want Be Lonely
TTITLE15=Hopelessy de Voted to you
TTITLE16=Side Show
TTITLE17=Sun Francisco Night
EXTD=
EXTT0=
EXTT1=
EXTT2=
EXTT3=
EXTT4=
EXTT5=
EXTT6=
EXTT7=
EXTT8=
EXTT9=
EXTT10=
EXTT11=
EXTT12=
EXTT13=
EXTT14=
EXTT15=
EXTT16=
EXTT17=
PLAYORDER=
